<svg xmlns="http://www.w3.org/2000/svg" width="2400" height="1350" viewBox="0 0 2400 1350">
  <defs>
    <linearGradient id="g" x1="0" y1="0" x2="1" y2="1">
      <stop offset="0" stop-color="#020202" />
      <stop offset="0.35" stop-color="#0A0A0A" />
      <stop offset="0.7" stop-color="#070707" />
      <stop offset="1" stop-color="#020202" />
    </linearGradient>
    <radialGradient id="n" cx="25%" cy="35%" r="70%">
      <stop offset="0" stop-color="#FF1B6B" stop-opacity="0.35" />
      <stop offset="0.45" stop-color="#A855F7" stop-opacity="0.18" />
      <stop offset="1" stop-color="#000000" stop-opacity="0" />
    </radialGradient>
    <radialGradient id="n2" cx="75%" cy="45%" r="70%">
      <stop offset="0" stop-color="#A855F7" stop-opacity="0.32" />
      <stop offset="0.55" stop-color="#FF1B6B" stop-opacity="0.16" />
      <stop offset="1" stop-color="#000000" stop-opacity="0" />
    </radialGradient>
    <filter id="blur" x="-20%" y="-20%" width="140%" height="140%">
      <feGaussianBlur stdDeviation="55" />
    </filter>
  </defs>

  <rect width="2400" height="1350" fill="url(#g)" />
  <circle cx="720" cy="520" r="620" fill="url(#n)" filter="url(#blur)" />
  <circle cx="1700" cy="560" r="700" fill="url(#n2)" filter="url(#blur)" />

  <g opacity="0.08">
    <path d="M0 135h2400M0 270h2400M0 405h2400M0 540h2400M0 675h2400M0 810h2400M0 945h2400M0 1080h2400M0 1215h2400" stroke="#FFFFFF" />
    <path d="M240 0v1350M480 0v1350M720 0v1350M960 0v1350M1200 0v1350M1440 0v1350M1680 0v1350M1920 0v1350M2160 0v1350" stroke="#FFFFFF" />
  </g>

  <g font-family="ui-sans-serif, system-ui, -apple-system, Segoe UI, Roboto" text-anchor="middle">
    <text x="1200" y="640" font-size="22" fill="rgba(255,255,255,0.55)" letter-spacing="10">
      HERO_PLACEHOLDER
    </text>
    <text x="1200" y="680" font-size="14" fill="rgba(255,255,255,0.40)" letter-spacing="2">
      Replace with high-resolution hero image
    </text>
  </g>
</svg>
